<svg xmlns="http://www.w3.org/2000/svg" viewBox="0 0 258 42">
    <path
        d="M45.087 10.304c0-.87.516-1.323 1.194-1.323.807 0 1.194.452 1.194 1.323v5.785c0 .635.713 1 1.235.637a6.573 6.573 0 013.703-1.16c4.035 0 6.293 2.517 6.293 7.004v8.005c0 .903-.549 1.355-1.226 1.355-.807 0-1.194-.452-1.194-1.355v-8.198c0-2.937-1.485-4.583-4.035-4.583-3.098 0-4.777 2.356-4.777 6.132v6.649c0 .903-.387 1.355-1.194 1.355-.807 0-1.194-.452-1.194-1.355v-20.27zm18.24-.839c.742-.677 1.872-.677 2.55 0 .742.678.742 1.807 0 2.55-.666.665-1.765.677-2.508.037a.775.775 0 01-.08-.08c-.64-.742-.627-1.842.038-2.507zm2.485 21.108c0 .904-.386 1.355-1.194 1.355-.807 0-1.194-.451-1.194-1.355V17.115c0-.871.517-1.323 1.194-1.323.808 0 1.194.452 1.194 1.323v13.458zm3.795-13.04c-.316-.823-.105-1.366.633-1.66a.96.96 0 01.09-.03c.751-.202 1.284.094 1.57.916l3.785 10.14c.254.678 1.212.678 1.465 0l3.786-10.14c.285-.823.817-1.118 1.569-.917.03.008.06.019.09.03.739.295.95.84.633 1.661l-5.098 13.04c-.356.903-.904 1.355-1.711 1.355s-1.355-.452-1.679-1.323l-5.133-13.072zm28.245 7.069H88.57a.782.782 0 00-.77.92c.506 2.764 2.41 4.373 5.212 4.373 1.484 0 2.775-.549 3.84-1.614.602-.602 1.173-.612 1.712-.095.02.02.041.041.06.064.453.54.38 1.108-.19 1.677-1.517 1.453-3.324 2.195-5.421 2.195-2.357 0-4.26-.742-5.68-2.26-1.389-1.517-2.099-3.485-2.099-5.906 0-2.323.71-4.292 2.098-5.938 1.42-1.646 3.195-2.454 5.357-2.454 4.906 0 6.81 4.002 6.81 7.553 0 1.001-.549 1.485-1.647 1.485zm-9.098-2.13h7.48a.784.784 0 00.773-.902c-.347-2.293-1.931-3.746-4.254-3.746-2.358 0-4.08 1.464-4.744 3.63a.784.784 0 00.745 1.018z"
        fill="currentColor"
    />
    <path
        d="M119.66 19.392c.703.575 1.373.575 1.788.128.447-.479.542-1.117-.16-1.755-1.308-1.213-2.968-1.788-4.755-1.788-2.745 0-5.395 1.564-5.395 4.5 0 2.33 1.501 3.799 4.437 4.501l2.33.543c1.66.383 2.458 1.213 2.458 2.266 0 1.5-1.309 2.394-3.511 2.394a5.805 5.805 0 01-4.054-1.66c-.606-.607-1.213-.447-1.66-.032-.414.415-.542 1.021.064 1.66 1.149 1.18 3.128 2.202 5.682 2.202 3.543 0 5.841-1.947 5.841-4.692 0-2.362-1.628-3.734-4.437-4.404l-2.458-.575c-1.596-.351-2.33-1.18-2.33-2.298 0-1.309 1.149-2.202 2.873-2.202 1.628 0 2.681.702 3.287 1.212zm20.467-1.85c0-.958-.542-1.341-1.181-1.341-.638 0-1.181.383-1.181 1.34v6.543c0 3.671-1.308 6.033-4.436 6.033-2.49 0-3.926-1.564-3.926-4.5V17.54c0-.957-.543-1.34-1.181-1.34s-1.181.383-1.181 1.34v7.884c0 4.436 1.979 6.926 5.969 6.926 2.01 0 3.798-.957 4.851-2.298v.798c0 .926.479 1.309 1.117 1.309.607 0 1.149-.383 1.149-1.309V17.54zm12.841.861c.319 0 .894.096.894.096.893.128 1.34-.447 1.34-1.053 0-.639-.447-1.054-1.085-1.181 0 0-.574-.128-1.149-.128-2.234 0-3.83.67-5.107 2.202v-.83c0-.925-.51-1.308-1.149-1.308-.606 0-1.149.383-1.149 1.308v13.31c0 .958.543 1.34 1.181 1.34s1.181-.382 1.181-1.34v-5.49c0-5.107 1.596-6.926 5.043-6.926zm9.859 12.448c.383 1.053.925 1.309 1.659 1.309s1.277-.256 1.692-1.341l5.043-12.895c.351-.893-.064-1.436-.67-1.66-.607-.19-1.277 0-1.596.894l-4.469 11.97-4.468-11.97c-.319-.893-.99-1.085-1.596-.893-.606.223-1.021.766-.67 1.66l5.075 12.926zm25.22-7.405c0-3.51-1.851-7.469-6.734-7.469-4.341 0-7.373 3.767-7.373 8.299 0 4.756 2.968 8.075 7.692 8.075a7.628 7.628 0 005.362-2.17c.639-.639.543-1.245.16-1.692-.447-.447-1.085-.575-1.724.064-1.021 1.021-2.106 1.596-3.798 1.596-3.064 0-5.043-1.98-5.266-5.235h10.054c1.053 0 1.627-.51 1.627-1.468zm-6.67-5.234c2.617 0 4.245 1.85 4.277 4.596h-9.193c.383-2.586 2.171-4.596 4.916-4.596zm14.22 18.416c-.351.894.064 1.436.67 1.66.606.191 1.277 0 1.628-.894l7.788-19.47c.351-.893-.064-1.436-.671-1.66-.606-.19-1.276 0-1.627.894l-4.724 12.193-4.82-12.193c-.351-.893-1.021-1.085-1.628-.893-.606.223-1.053.766-.702 1.66l5.841 14.266-1.755 4.437zm14.074-25.438c0 .99.798 1.787 1.788 1.787.989 0 1.787-.798 1.787-1.787 0-.958-.798-1.756-1.787-1.756-.99 0-1.788.798-1.788 1.756zm2.969 6.32c0-.926-.543-1.31-1.181-1.31-.607 0-1.181.384-1.181 1.31v13.309c0 .958.542 1.34 1.181 1.34.638 0 1.181-.382 1.181-1.34v-13.31zm5.704 13.309c0 .958.543 1.34 1.181 1.34s1.181-.382 1.181-1.34v-6.575c0-3.67 1.596-6.064 4.724-6.064 2.489 0 3.989 1.596 3.989 4.532v8.107c0 .958.543 1.34 1.181 1.34.639 0 1.213-.382 1.213-1.34v-7.915c0-4.437-2.234-6.927-6.224-6.927-2.01 0-3.894.958-4.947 2.298v-.766c0-.925-.511-1.308-1.149-1.308-.606 0-1.149.383-1.149 1.308v13.31zm19.02 5.011c.639.798 2.362 2.713 5.937 2.713 4.66 0 7.532-3.096 7.532-7.82V17.478c0-.926-.542-1.31-1.149-1.31-.606 0-1.149.384-1.149 1.31v.893c-1.372-1.755-3.159-2.394-5.17-2.394-3.958 0-7.086 3.32-7.086 7.852 0 4.5 3.128 7.82 7.086 7.82 2.011 0 3.83-.638 5.107-2.362v1.628c0 3.16-1.692 5.458-5.171 5.458-2.33 0-3.575-1.34-4.149-2.011-.607-.702-1.245-.67-1.724-.255-.479.383-.638.989-.064 1.723zm1.341-12c0-3.352 2.074-5.618 4.883-5.618s4.947 2.266 4.947 5.617c0 3.32-2.138 5.586-4.947 5.586s-4.883-2.267-4.883-5.586z"
        fill="#F59C17"
    />
    <path
        d="M37.524 28.827V12.95a5.01 5.01 0 00-2.505-4.34L21.268.671a5.012 5.012 0 00-5.01 0L2.504 8.609A5.013 5.013 0 000 12.95v15.878c0 1.79.955 3.444 2.505 4.34l13.751 7.94a5.016 5.016 0 005.011 0l13.751-7.94a5.01 5.01 0 002.506-4.34z"
        fill="#E83B59"
    />
    <path
        d="M33.238 27.639V14.138c0-.995-.53-1.914-1.392-2.411l-11.692-6.75a2.786 2.786 0 00-2.785 0l-11.692 6.75a2.783 2.783 0 00-1.392 2.411V27.64c0 .994.53 1.914 1.392 2.41l11.692 6.751a2.786 2.786 0 002.785 0l11.692-6.75a2.788 2.788 0 001.392-2.412z"
        fill="#F59C17"
    />
    <path
        d="M28.853 25.75v-9.722a1.67 1.67 0 00-.835-1.447l-8.42-4.861a1.67 1.67 0 00-1.671 0l-8.42 4.861a1.67 1.67 0 00-.835 1.447v9.723c0 .597.318 1.148.835 1.446l8.42 4.861a1.67 1.67 0 001.67 0l8.42-4.86c.518-.3.836-.851.836-1.448z"
        fill="#FFD10F"
    />
    <path
        d="M18.763 26.455a5.567 5.567 0 100-11.135 5.567 5.567 0 000 11.135z"
        fill="#FFEFB7"
    />
</svg>
